<?xml version="1.0" encoding="iso-8859-1"?>
<!-- Uploaded to: SVG Repo, www.svgrepo.com, Generator: SVG Repo Mixer Tools -->
<svg version="1.1" id="Layer_1" xmlns="http://www.w3.org/2000/svg" xmlns:xlink="http://www.w3.org/1999/xlink" 
	 viewBox="0 0 511.999 511.999" xml:space="preserve">
<path style="fill:#222020;" d="M455.103,91.032H102.415c-25.111-0.071-45.449-20.41-45.52-45.52l0,0
	C56.97,20.405,77.308,0.071,102.415,0h352.688L455.103,91.032L455.103,91.032z"/>
<path style="fill:#CCCCCC;" d="M455.103,78.216H104.872C86.838,78.158,72.232,63.553,72.176,45.52l0,0
	c0.044-18.043,14.653-32.662,32.696-32.72h350.232v65.416H455.103z"/>
<rect x="115.77" y="91.03" width="339.331" height="420.969"/>
<path style="fill:#666666;" d="M102.415,91.032c-24.511-0.071-44.58-19.505-45.44-44l-0.048,419.448
	c0.071,25.098,20.389,45.432,45.488,45.52h13.36V91.032H102.415z"/>
<polygon style="fill:#E21B1B;" points="284.463,91.032 284.463,291.232 219.184,236.345 153.895,292.32 153.895,91.032 "/>
<polygon style="fill:#F91E1E;" points="153.895,91.032 153.895,292.32 219.184,236.345 219.184,91.032 "/>
</svg>