<?xml version="1.0" standalone="no"?>
<!DOCTYPE svg PUBLIC "-//W3C//DTD SVG 20010904//EN"
 "http://www.w3.org/TR/2001/REC-SVG-20010904/DTD/svg10.dtd">
<svg version="1.0" xmlns="http://www.w3.org/2000/svg"
 width="300.000000pt" height="300.000000pt" viewBox="0 0 300.000000 300.000000"
 preserveAspectRatio="xMidYMid meet">
<metadata>
Created by potrace 1.10, written by Peter Selinger 2001-2011
</metadata>
<g transform="translate(0.000000,300.000000) scale(0.100000,-0.100000)"
fill="#000000" stroke="none">
<path d="M0 1500 l0 -1500 1500 0 1500 0 0 340 c0 265 -3 340 -12 340 -7 0
-101 11 -208 25 -221 28 -463 33 -754 15 -259 -16 -336 -27 -401 -56 -49 -23
-66 -26 -117 -20 -32 3 -78 15 -102 26 -72 33 -207 43 -466 36 -129 -3 -251
-8 -270 -10 -19 -2 -69 -7 -110 -11 -41 -3 -147 -15 -235 -26 -209 -27 -285
-33 -285 -25 0 4 14 35 31 69 32 61 32 63 30 200 -2 124 0 140 18 166 11 15
18 31 15 34 -4 3 19 38 50 78 56 72 61 89 25 89 -10 0 -19 3 -19 7 0 4 36 44
81 89 l81 82 -87 13 c-53 8 -89 18 -92 26 -3 7 7 38 22 68 19 41 76 106 211
244 101 103 208 207 239 231 l55 42 0 169 0 169 -60 0 -60 0 0 41 0 40 278 -3
c267 -3 279 -4 330 -27 92 -41 132 -107 132 -217 0 -91 -31 -152 -94 -186
l-40 -20 36 -13 c58 -19 106 -54 130 -93 18 -29 23 -55 26 -128 5 -106 -6
-150 -51 -200 -70 -81 -136 -94 -472 -94 l-265 0 0 40 0 40 55 0 55 0 0 231 0
230 -27 -20 c-40 -29 -213 -198 -335 -329 -86 -92 -148 -178 -148 -206 0 -2
33 -9 73 -15 238 -36 309 -52 314 -68 2 -6 -42 0 -98 13 l-102 23 -79 -81
c-44 -44 -78 -81 -76 -83 2 -1 50 -12 108 -24 162 -34 243 -56 247 -68 2 -5
-67 7 -154 28 -87 21 -158 37 -159 36 -1 -1 -25 -32 -53 -69 l-52 -68 73 0
c40 0 131 -7 203 -15 72 -8 133 -15 138 -15 4 0 7 -8 7 -17 0 -16 -14 -18
-148 -19 -81 0 -185 -6 -231 -14 l-84 -13 6 -155 c3 -85 8 -156 10 -159 3 -2
45 3 93 11 212 37 643 43 909 13 77 -9 160 -17 185 -18 25 -1 56 -10 70 -19
71 -48 162 -53 236 -14 81 43 222 62 558 75 281 10 579 3 707 -17 l37 -6 -4
83 c-2 46 0 118 5 159 5 41 5 79 1 83 -13 15 -290 20 -385 8 -49 -7 -110 -15
-134 -18 -34 -5 -43 -3 -39 8 9 27 303 81 450 82 l107 1 -27 29 c-15 16 -44
42 -64 59 l-37 29 -123 -11 c-68 -7 -163 -20 -213 -30 -49 -10 -92 -16 -94
-14 -21 20 128 46 362 66 81 7 147 16 147 20 0 9 -140 122 -173 140 -13 7 -17
13 -10 15 26 9 219 -149 207 -168 -3 -5 -21 -9 -40 -9 -19 0 -34 -3 -34 -7 1
-5 18 -21 38 -37 59 -47 88 -86 71 -96 -11 -7 -10 -12 4 -28 15 -17 17 -29 9
-78 -4 -33 -7 -95 -6 -140 1 -64 7 -90 27 -130 l26 -49 1 1148 0 1147 -1500 0
-1500 0 0 -1500z m2176 995 c49 -9 103 -20 119 -25 l31 -10 -10 -90 -9 -90
-38 0 -39 0 0 59 0 60 -57 12 c-81 18 -217 16 -284 -4 -95 -28 -140 -97 -118
-181 21 -78 99 -126 263 -162 l72 -16 80 40 79 40 80 -56 c149 -106 343 -310
462 -487 22 -33 44 -70 47 -82 6 -19 3 -23 -31 -28 -127 -19 -264 -49 -348
-76 -53 -17 -99 -28 -102 -25 -6 6 16 15 107 47 63 23 287 69 331 69 16 0 29
2 29 5 0 10 -71 118 -109 165 -79 100 -157 188 -215 243 -79 75 -234 197 -251
197 -7 0 -41 -13 -75 -29 l-61 -29 48 -16 c105 -35 163 -99 182 -199 29 -159
-64 -278 -250 -318 -98 -21 -416 4 -447 36 -3 2 -1 47 3 100 l7 95 39 0 39 0
0 -65 c0 -36 2 -65 4 -65 2 0 28 -5 57 -10 145 -28 318 -4 394 55 84 64 88
162 8 237 -37 35 -82 53 -221 89 -235 60 -309 122 -320 270 -3 52 0 75 16 112
53 121 247 173 488 132z m-597 -400 c28 -14 61 -68 61 -100 0 -32 -33 -86 -61
-100 -37 -20 -99 -19 -127 1 -12 8 -29 28 -37 44 -54 105 58 210 164 155z
m-469 -742 c0 -52 3 -64 12 -55 7 7 34 12 61 12 40 0 53 -5 78 -29 27 -28 29
-34 29 -108 -1 -81 -8 -101 -47 -121 -26 -15 -98 -16 -123 -2 -13 7 -19 6 -24
-5 -16 -42 -21 2 -18 165 l4 180 -26 0 c-16 0 -26 6 -26 15 0 11 11 15 40 15
l40 0 0 -67z m-142 24 c4 -20 -25 -34 -40 -19 -15 15 -1 44 19 40 10 -2 19
-11 21 -21z m-248 -2 c0 -8 -9 -15 -20 -15 -19 0 -20 -7 -20 -145 l0 -145 75
0 c73 0 75 1 75 25 0 16 6 25 15 25 11 0 15 -11 15 -40 l0 -40 -125 0 c-104 0
-125 2 -125 15 0 8 9 15 20 15 19 0 20 7 20 145 l0 145 -25 0 c-24 0 -32 10
-18 23 3 4 30 7 60 7 40 0 53 -4 53 -15z m1328 -94 c-2 -15 -9 -26 -18 -26 -8
0 -14 6 -12 13 2 12 -15 16 -53 12 -40 -4 -45 -18 -45 -132 0 -96 -2 -109 -16
-106 -14 3 -16 19 -15 121 l2 117 -25 0 c-16 0 -26 6 -26 15 0 10 11 15 35 15
26 0 35 -4 35 -17 0 -15 2 -15 18 -1 21 19 46 25 90 20 29 -4 33 -8 30 -31z
m-1078 -91 c0 -113 1 -120 20 -120 13 0 18 -5 14 -15 -4 -11 -21 -15 -55 -15
-37 0 -49 4 -49 15 0 8 9 15 20 15 19 0 20 7 20 105 l0 105 -25 0 c-16 0 -25
6 -25 15 0 11 11 15 40 15 l40 0 0 -120z m443 108 c4 -10 7 -10 18 0 7 6 37
12 66 12 52 0 53 0 53 -30 0 -20 -5 -30 -15 -30 -8 0 -15 7 -15 15 0 15 -16
19 -55 15 -40 -4 -45 -18 -45 -132 0 -96 -2 -109 -16 -106 -14 3 -16 19 -15
121 l2 117 -25 0 c-16 0 -26 6 -26 15 0 19 66 21 73 3z m346 -14 c18 -23 21
-41 21 -119 0 -86 2 -93 21 -98 12 -3 18 -10 14 -16 -10 -17 -43 -13 -53 6 -9
16 -11 16 -27 0 -26 -27 -100 -23 -130 8 -34 33 -34 83 0 115 21 19 37 24 85
24 51 1 60 4 60 19 0 42 -19 57 -70 57 -28 0 -50 -4 -50 -10 0 -5 -7 -10 -15
-10 -21 0 -19 38 3 43 9 3 40 5 69 6 45 1 54 -3 72 -25z m371 -58 c0 -85 11
-134 33 -148 7 -4 29 -8 49 -8 54 0 68 25 68 127 0 82 0 83 -25 83 -16 0 -25
6 -25 15 0 11 11 15 41 15 l40 0 -3 -159 c-3 -138 -5 -162 -22 -179 -12 -15
-54 -29 -135 -47 -244 -56 -289 -68 -406 -107 -66 -22 -128 -45 -137 -50 -10
-5 -18 -5 -18 -1 0 23 261 105 505 160 44 9 70 19 58 21 -26 4 -47 27 -38 42
4 7 14 5 28 -5 26 -18 87 -20 110 -2 10 6 20 30 24 51 l6 39 -24 -16 c-35 -25
-92 -22 -125 7 -26 22 -28 30 -32 119 -4 83 -7 96 -23 100 -32 9 -21 27 16 27
l35 0 0 -84z m690 -193 c0 -5 -64 -8 -143 -9 -124 -1 -237 -13 -283 -31 -8 -3
-14 -1 -14 5 0 9 82 29 150 35 72 7 290 7 290 0z m-2320 -23 c-94 -11 -365
-21 -358 -14 9 8 209 21 328 21 92 0 93 0 30 -7z m2268 -6 c-2 -2 -78 -10
-169 -18 -90 -9 -180 -18 -199 -22 -26 -5 -32 -4 -25 5 6 6 94 19 195 29 166
16 209 18 198 6z m-2188 -31 c0 -5 -95 -8 -210 -8 -116 0 -210 3 -210 8 0 4
94 7 210 7 116 0 210 -3 210 -7z m2196 -11 c-3 -5 -65 -12 -138 -15 -73 -3
-169 -11 -213 -17 -94 -13 -289 -48 -310 -57 -8 -3 -15 -1 -15 5 0 23 377 79
580 85 47 2 89 4 93 5 5 1 6 -2 3 -6z m-1891 -46 c134 -17 439 -64 464 -72 8
-2 11 -7 9 -10 -3 -3 -55 4 -114 15 -268 50 -730 89 -932 78 -72 -4 -101 -3
-96 5 10 16 509 4 669 -16z m202 -3 c84 -14 153 -30 153 -35 0 -5 -8 -7 -17
-4 -22 7 -295 54 -343 59 -31 3 -31 4 9 5 25 1 113 -10 198 -25z m326 -33 c56
-31 104 -56 106 -54 2 2 -17 28 -43 59 -46 53 -53 73 -14 38 18 -16 18 -16 12
3 -11 32 13 3 35 -41 l20 -40 1 48 c0 26 5 47 10 47 6 0 10 -28 10 -65 l0 -66
61 66 c34 36 69 65 78 65 9 0 -10 -23 -47 -56 -35 -31 -61 -59 -58 -62 3 -2
42 23 87 57 46 33 90 61 98 61 9 0 -1 -12 -22 -27 -20 -14 -36 -28 -34 -29 2
-2 32 8 67 23 36 14 88 28 115 30 58 4 58 3 -60 -32 -49 -14 -135 -49 -191
-76 l-100 -49 -125 56 c-68 32 -155 67 -194 80 l-70 22 78 0 c76 -1 81 -3 180
-58z m-733 10 c0 -6 -51 -10 -132 -11 -73 0 -173 -4 -223 -8 -85 -8 -105 -7
-94 4 18 17 449 32 449 15z m2131 -2 c-8 -9 -46 -12 -128 -11 -163 4 -435 -13
-588 -36 -151 -23 -281 -48 -295 -56 -6 -3 -10 -2 -10 4 0 16 138 43 420 82
41 6 190 14 330 18 140 4 262 8 270 9 11 2 12 0 1 -10z m-1611 -68 c91 -12
172 -26 180 -31 13 -7 13 -8 -1 -9 -9 0 -38 4 -65 9 -27 5 -116 17 -199 27
-177 20 -665 23 -809 5 -82 -11 -108 -10 -94 5 13 13 279 22 543 19 215 -3
318 -8 445 -25z m1577 0 c34 0 63 -3 63 -7 0 -5 -109 -6 -242 -5 -219 4 -558
-10 -615 -25 -13 -3 -23 -1 -23 5 0 20 417 44 634 36 66 -2 148 -4 183 -4z"/>
<path d="M1878 2457 c-131 -32 -178 -83 -178 -194 0 -132 69 -194 267 -243
167 -41 213 -61 269 -116 43 -42 53 -59 59 -97 12 -81 -26 -154 -109 -202 -23
-13 -59 -27 -80 -31 -21 -3 -48 -8 -60 -11 -47 -13 -130 -14 -170 -4 -22 6
-57 12 -76 13 -60 3 -80 23 -80 79 0 51 -13 66 -24 27 -3 -13 -6 -42 -6 -65 0
-33 5 -45 21 -53 30 -17 127 -25 279 -24 122 0 140 3 190 26 119 54 153 103
151 220 -1 66 -5 85 -25 115 -20 29 -84 83 -99 83 -3 0 -22 8 -43 17 -22 10
-43 18 -49 18 -45 4 -105 18 -105 24 0 4 -17 8 -37 9 -48 3 -151 52 -180 86
-44 50 -56 86 -50 149 4 50 11 65 38 93 18 19 38 34 45 34 7 0 14 4 16 10 4
14 132 40 193 39 74 0 182 -23 205 -44 14 -13 20 -31 20 -62 0 -53 15 -57 24
-5 13 80 10 89 -36 100 -125 31 -269 34 -370 9z"/>
<path d="M1475 2068 c-31 -18 -44 -40 -45 -76 0 -64 72 -103 133 -71 31 17 37
28 37 80 0 43 -2 48 -34 63 -40 19 -63 20 -91 4z"/>
<path d="M1143 1279 l-33 -10 0 -94 c0 -55 4 -97 11 -100 5 -4 31 -7 56 -8 64
0 83 24 83 108 0 93 -39 127 -117 104z"/>
<path d="M1632 1164 c-26 -18 -29 -56 -6 -78 22 -22 87 -21 107 2 10 10 17 35
17 55 l0 37 -48 0 c-27 0 -57 -7 -70 -16z"/>
<path d="M1261 926 c9 -8 179 -84 179 -80 0 6 -158 84 -171 84 -7 0 -10 -2 -8
-4z"/>
<path d="M615 2451 c-4 -7 9 -11 38 -11 79 0 76 18 76 -438 0 -387 -1 -404
-19 -422 -11 -11 -22 -20 -25 -20 -3 0 -16 0 -30 0 -14 0 -25 -5 -25 -11 0 -8
78 -10 273 -7 268 3 273 4 328 30 85 39 112 81 119 182 7 105 -8 154 -63 201
-23 20 -47 33 -54 31 -7 -3 -13 -1 -13 4 0 6 -5 10 -11 10 -6 0 11 -21 38 -47
53 -52 73 -100 73 -175 0 -64 -44 -145 -98 -183 l-44 -30 -190 -3 c-167 -2
-194 0 -210 14 -16 16 -18 35 -18 212 0 183 1 197 20 217 l20 22 -20 25 c-18
24 -20 41 -20 191 0 214 -14 200 202 195 183 -4 206 -10 255 -75 38 -50 45
-159 14 -220 -25 -50 -61 -80 -110 -92 -103 -26 -101 -24 -41 -32 30 -3 68
-10 83 -14 28 -7 28 -7 15 14 -12 21 -10 25 27 57 22 18 43 34 47 34 3 0 14
20 24 45 12 33 15 63 12 114 -8 103 -42 142 -153 175 -55 17 -510 22 -520 7z"/>
<path d="M790 2237 l0 -172 143 3 c165 4 210 13 248 51 60 60 62 180 5 237
-44 44 -89 54 -253 54 l-143 0 0 -173z"/>
<path d="M790 1791 l0 -201 163 0 c169 0 223 9 271 43 38 27 66 91 66 154 0
87 -28 136 -105 176 -35 19 -60 22 -217 25 l-178 4 0 -201z"/>
<path d="M2655 1113 c-60 -8 -114 -18 -118 -22 -5 -5 18 -4 50 1 56 10 267 4
328 -9 l30 -6 -24 27 c-22 23 -31 26 -90 25 -36 -1 -115 -8 -176 -16z"/>
<path d="M146 1078 c-23 -32 -20 -39 12 -26 15 6 110 14 212 17 l185 6 -103
13 c-56 6 -145 12 -197 12 -86 0 -95 -2 -109 -22z"/>
<path d="M2488 1083 c6 -2 18 -2 25 0 6 3 1 5 -13 5 -14 0 -19 -2 -12 -5z"/>
<path d="M2944 753 c2 -13 0 -25 -4 -28 -5 -3 -68 1 -141 10 -72 8 -159 14
-192 14 -60 -2 -59 -2 23 -10 47 -4 143 -14 214 -23 71 -9 131 -15 132 -13 1
1 -7 18 -17 37 -14 24 -19 28 -15 13z"/>
<path d="M2128 743 c7 -3 16 -2 19 1 4 3 -2 6 -13 5 -11 0 -14 -3 -6 -6z"/>
<path d="M469 730 c-75 -4 -182 -15 -237 -25 -102 -17 -128 -15 -118 11 3 8 2
14 -2 14 -5 0 -14 -17 -22 -37 -8 -21 -16 -41 -18 -44 -1 -4 16 -3 40 2 131
26 506 61 713 67 150 4 214 9 185 13 -56 9 -361 8 -541 -1z"/>
<path d="M1958 733 c12 -2 30 -2 40 0 9 3 -1 5 -23 4 -22 0 -30 -2 -17 -4z"/>
</g>
</svg>
