<!DOCTYPE svg PUBLIC "-//W3C//DTD SVG 1.1//EN" "http://www.w3.org/Graphics/SVG/1.1/DTD/svg11.dtd">
<!-- Uploaded to: SVG Repo, www.svgrepo.com, Transformed by: SVG Repo Mixer Tools -->
<svg fill="#000000" version="1.1" id="Capa_1" xmlns="http://www.w3.org/2000/svg" xmlns:xlink="http://www.w3.org/1999/xlink" width="800px" height="800px" viewBox="0 0 29.652 29.652" xml:space="preserve">
<g id="SVGRepo_bgCarrier" stroke-width="0"/>
<g id="SVGRepo_tracerCarrier" stroke-linecap="round" stroke-linejoin="round"/>
<g id="SVGRepo_iconCarrier"> <g> <g> <path d="M10.226,23.049L10.226,23.049L0,24.562l13.642,4.896l12.146-1.632l3.745-15.817l-16.888-1.656L10.226,23.049z M12.31,16.775c0.262-0.719,0.769-1.352,1.497-1.735c0.391-0.207,0.806-0.323,1.22-0.357l-0.159,0.085l0.006,0.146l-0.224,0.118 l-0.132,0.213l0.033,0.099l0.072-0.021l0.109-0.197l0.151-0.105l0.033,0.063l-0.151,0.114l-0.146,0.276l-0.095-0.002l-0.1,0.178 l0.069,0.277l0.039-0.02l0.038,0.104l-0.074,0.026l0.025,0.087l0.031,0.137l-0.104,0.27l0.098,0.227l-0.165,0.111L14.2,16.776 l-0.161,0.076l-0.106,0.03l-0.154,0.354l-0.082,0.062c0,0,0.02,0.09,0.024,0.099c0.004,0.009-0.031,0.237-0.031,0.237 l-0.482,0.256l0.015,0.066l-0.243,0.077l-0.08,0.17l-0.229,0.099l-0.159,0.25l-0.059,0.244l0.085,0.168l0.063-0.012l0.038-0.179 l0.056-0.021l0.076-0.011l0.066-0.028l-0.043-0.086l0.031-0.07l0.104,0.035l0.056-0.018l-0.019-0.089l0.048-0.021l0.076,0.102 l0.169,0.125l0.133,0.001l0.317,0.058l0.154-0.135l0.122,0.006l0.079,0.165l0.144,0.063l0.358-0.143l0.217,0.037l0.109-0.029 l-0.023-0.131l0.082-0.134l-0.129-0.249l-0.028-0.236l0.135-0.084l0.081-0.125l-0.093-0.18l0.106-0.189l-0.004-0.113l-0.052,0.021 l-0.098-0.162l0.053-0.104l-0.056-0.192l-0.241-0.056l-0.079-0.245l0.244-0.148l-0.059-0.178l0.158-0.002l0.063-0.058 l-0.258-0.138l-0.056-0.146l0.08-0.104l0.125-0.028l0.177,0.001l0.179,0.128l0.176,0.331l-0.103,0.052l0.006,0.15l0.17-0.103 l0.132,0.039l0.207,0.114l0.086-0.03l0.271,0.079l0.199,0.13l0.006-0.023l0.183,0.062l0.012,0.055l-0.015,0.035l0.076,0.019 l0.013,0.01l-0.021-0.055l-0.012-0.063l0.053-0.027l0.036,0.017l0.032,0.063l0.002,0.035l-0.034,0.049l0.021,0.028l0.004-0.003 l0.002,0.01l0.061,0.08l0.047-0.011l0.015,0.056l-0.046,0.024l-0.057-0.028l-0.046,0.032l0.033,0.183c0,0,0,0-0.001,0l0.021,0.035 l0.069-0.033l-0.011-0.154l0.031-0.023l0.088,0.084l0.102-0.046l0.008-0.143l0.164-0.095l-0.15-0.11l-0.028-0.054l0.136-0.053 l-0.061-0.226l-0.105-0.052l-0.191,0.103l-0.127-0.124l-0.155,0.006l-0.045-0.06l0.159-0.085l-0.057-0.149l0.012-0.095 l0.088-0.083l0.279,0.174l0.102,0.104L16.96,16.15L17,16.217l0.045-0.018l0.047,0.064l0.018-0.006l-0.006-0.037l0.041-0.029 l0.054,0.084l0.084,0.021l0.006,0.002l-0.002,0.002l0.026,0.006l0.121,0.174l-0.025,0.117l-0.229-0.153l0.08,0.308l0.109-0.013 l0.062,0.118l0.103,0.002l-0.022-0.098l0.1-0.053l-0.023-0.326l-0.115-0.17l-0.109-0.076l-0.125,0.076l-0.041-0.115l0.062-0.057 l0.147,0.055l-0.089-0.192l-0.047-0.044l-0.074,0.01l0.025,0.075l-0.078,0.024l-0.07-0.116l-0.057,0.006l-0.096-0.171 c0,0,0.096-0.057,0.092-0.062c-0.004-0.009,0.074,0.133,0.074,0.133l0.154,0.051l-0.001-0.071l-0.111-0.036l-0.06-0.128 l0.062-0.129l-0.083-0.159l-0.211-0.102l0.081,0.155l-0.038,0.035l-0.059-0.02l0.085,0.171l-0.047,0.057l-0.096-0.192l0.043-0.033 l-0.037-0.135v-0.082l-0.074-0.141c0.584,0.286,1.088,0.752,1.414,1.37c0.375,0.712,0.451,1.505,0.277,2.229l-0.076-0.002 l-0.121-0.102l-0.088-0.021l-0.063,0.048l0.026,0.071l-0.08,0.093l0.109,0.094l-0.128,0.089l-0.019-0.033l-0.036-0.103 l-0.072-0.099l-0.198-0.024l-0.099-0.133l-0.137,0.045l0.02,0.067l-0.092,0.025l-0.047-0.16l-0.099-0.119l-0.088,0.012 l-0.145,0.105l0.006,0.098l0.07,0.131l0.053,0.084l0.084-0.012l0.253,0.045l0.029,0.1l0.129,0.046l-0.056,0.053l-0.029,0.298 l-0.051-0.009l-0.047-0.103l-0.033,0.068l0.018,0.067l0.067,0.056l0.085-0.047l0.033,0.021l0.015-0.037l0.003-0.19l0.089-0.097 l0.063,0.123l-0.018,0.058l-0.035,0.154l-0.106,0.062l-0.06,0.17l0.181-0.043l0.081,0.054l-0.122,0.083l-0.042,0.115l0.08,0.146 c-0.059,0.066-0.118,0.132-0.184,0.193l-0.022-0.008l-0.12-0.225l0.031-0.191l-0.09-0.136l-0.088,0.046L17.2,19.581l0.01-0.067 l-0.069-0.283l0.162-0.085l-0.191-0.304l-0.104-0.07l-0.066-0.125l-0.026-0.064l-0.165-0.106l-0.158,0.083l-0.389-0.192 l-0.082,0.076l0.031,0.063l-0.098,0.03l-0.041-0.034l-0.24,0.123l-0.164,0.432l0.062,0.117l0.022-0.004l0.111,0.211l0.088,0.032 l0.063,0.118l-0.032,0.102L16,19.82l-0.248,0.102l-0.246,0.383h-0.253l-0.091,0.058l-0.037,0.124l-0.226,0.119l-0.087,0.185 l-0.188,0.099l0.05,0.094c-0.909-0.182-1.73-0.754-2.195-1.635c-0.271-0.514-0.373-1.067-0.352-1.611L12.31,16.775z M10.246,27.547L6.898,26.27l1.614-0.215l3.756,1.255L10.246,27.547z M27.834,13.173L24.68,26.498l-13.513-3.822l0.771-3.976 c0.065,0.265,0.154,0.525,0.287,0.776c0.629,1.189,1.854,1.863,3.118,1.849c0.269-0.004,0.54-0.039,0.808-0.106 c0.067-0.016,0.137-0.035,0.203-0.059c0.188-0.061,0.379-0.138,0.562-0.234c0.011-0.006,0.021-0.012,0.032-0.018 c0.089-0.049,0.175-0.102,0.259-0.154c0.278-0.184,0.521-0.401,0.729-0.646l0.002,0.002l0.045-0.035l-0.002-0.021 c0.258-0.313,0.453-0.67,0.586-1.045c0.009-0.024,0.018-0.051,0.024-0.073c0.022-0.071,0.046-0.144,0.063-0.214 c0.209-0.808,0.129-1.693-0.289-2.486c-0.424-0.802-1.117-1.367-1.911-1.649c-0.183-0.065-0.374-0.115-0.567-0.147 c-0.73-0.127-1.508-0.024-2.211,0.348c-0.488,0.257-0.878,0.622-1.181,1.043l0.845-4.36L27.834,13.173z"/> <polygon points="8.351,1.92 8.358,1.979 8.271,1.996 8.26,2.119 8.364,2.119 8.5,2.104 8.572,2.02 8.496,1.992 8.455,1.943 8.394,1.843 8.364,1.701 8.247,1.727 8.214,1.775 8.214,1.833 8.271,1.872 "/> <polygon points="8.251,1.967 8.258,1.891 8.188,1.862 8.093,1.883 8.022,1.998 8.022,2.071 8.104,2.071 "/> <path d="M6.283,2.294L6.26,2.347H6.159v0.055h0.024c0,0,0.001,0.01,0.004,0.024L6.25,2.422l0.038-0.023L6.3,2.347l0.049-0.004 L6.37,2.301L6.322,2.293L6.283,2.294z"/> <polygon points="6.02,2.39 6.015,2.44 6.089,2.436 6.097,2.383 6.054,2.347 "/> <polygon points="17.646,18.328 17.545,18.372 17.587,18.453 17.654,18.557 17.752,18.578 17.743,18.506 17.766,18.453 17.816,18.362 17.917,18.28 17.85,18.197 17.797,18.192 17.752,18.217 17.745,18.276 17.738,18.36 17.695,18.391 "/> <polygon points="17.66,18.303 17.725,18.274 17.718,18.209 17.66,18.141 17.541,18.133 17.482,18.164 17.518,18.229 "/> <path d="M16.434,16.859l0.03,0.048l0.035,0.021l0.043-0.013l0.024,0.038l0.041-0.002l-0.012-0.041l-0.019-0.031l-0.052,0.006 l-0.043-0.08l-0.043,0.022l0.012,0.019C16.452,16.846,16.443,16.852,16.434,16.859z"/> <polygon points="16.432,16.77 16.439,16.721 16.393,16.711 16.352,16.729 16.387,16.785 "/> <path d="M1.302,19.608c0.002,0.001,0.003,0.001,0.003,0.001c0.002,0.002,0.003,0.003,0.004,0.005 c0.764,0.632,1.737,0.851,2.645,0.683c0.084-0.017,0.166-0.035,0.248-0.058c0.62-0.167,1.198-0.521,1.638-1.054 c0.441-0.531,0.681-1.162,0.729-1.805c0.007-0.086,0.01-0.17,0.01-0.254c-0.003-0.924-0.399-1.837-1.164-2.472 c0,0-0.001-0.002-0.003-0.002c0,0-0.001-0.001-0.003-0.002c-0.002-0.003-0.005-0.005-0.008-0.007 c-0.763-0.624-1.729-0.838-2.63-0.671c-0.083,0.015-0.165,0.034-0.249,0.057c-0.62,0.167-1.197,0.52-1.638,1.051 c-0.439,0.532-0.679,1.165-0.729,1.808c-0.006,0.084-0.009,0.17-0.009,0.254c0.003,0.916,0.394,1.824,1.149,2.457 C1.297,19.604,1.3,19.606,1.302,19.608z M1.586,19.484l1.036-1.25c0.342,0.299,0.629,0.623,0.849,0.95 C2.762,19.631,2.052,19.764,1.586,19.484z M3.48,17.198l0.656-0.791c0.376,0.296,0.77,0.528,1.158,0.69 c-0.164,0.352-0.387,0.709-0.666,1.051L3.48,17.198z M4.455,18.35c-0.243,0.271-0.505,0.502-0.77,0.693 c-0.232-0.354-0.533-0.697-0.896-1.013l0.522-0.63L4.455,18.35z M3.276,17.029l-1.159-0.962c0.283-0.339,0.596-0.625,0.912-0.853 c0.234,0.355,0.537,0.707,0.904,1.021L3.276,17.029z M3.108,17.232l-0.522,0.631c-0.38-0.3-0.779-0.535-1.173-0.697 c0.138-0.298,0.318-0.6,0.539-0.89L3.108,17.232z M2.277,19.881c0.414-0.027,0.875-0.192,1.331-0.475 c0.123,0.212,0.218,0.428,0.28,0.632C3.354,20.135,2.795,20.086,2.277,19.881z M4.138,19.981c-0.07-0.233-0.176-0.476-0.315-0.718 c0.29-0.205,0.573-0.454,0.837-0.745l0.816,0.677C5.099,19.584,4.634,19.846,4.138,19.981z M5.652,18.996l-0.819-0.678 c0.298-0.364,0.533-0.747,0.705-1.127c0.263,0.093,0.521,0.15,0.765,0.177C6.258,17.945,6.044,18.516,5.652,18.996z M5.858,15.559 c0.296,0.47,0.448,1.01,0.453,1.555c-0.213-0.023-0.44-0.078-0.674-0.158C5.829,16.454,5.906,15.969,5.858,15.559z M5.396,16.859 c-0.363-0.155-0.735-0.375-1.092-0.656l1.035-1.249C5.7,15.358,5.7,16.08,5.396,16.859z M5.138,14.782l-1.037,1.252 c-0.347-0.302-0.635-0.631-0.856-0.962C3.958,14.625,4.673,14.494,5.138,14.782z M4.423,14.378 c-0.409,0.031-0.864,0.195-1.314,0.474c-0.121-0.209-0.214-0.418-0.276-0.618C3.36,14.136,3.91,14.182,4.423,14.378z M2.586,14.289c0.067,0.229,0.172,0.468,0.307,0.704c-0.343,0.241-0.676,0.544-0.979,0.906L1.105,15.23 C1.505,14.757,2.025,14.44,2.586,14.289z M0.943,15.439l0.807,0.668c-0.24,0.314-0.433,0.643-0.58,0.965 c-0.259-0.088-0.511-0.146-0.749-0.171C0.459,16.391,0.631,15.885,0.943,15.439z M0.852,18.69 c-0.289-0.466-0.436-0.997-0.441-1.533c0.209,0.022,0.433,0.075,0.661,0.153C0.883,17.805,0.805,18.283,0.852,18.69z M1.313,17.404c0.367,0.155,0.744,0.379,1.105,0.662l-1.036,1.252C1.012,18.916,1.006,18.19,1.313,17.404z"/> <path d="M13.142,8.772c0.228,0.432,0.587,0.797,1.058,1.033c0.468,0.235,0.979,0.303,1.46,0.23 c0.062-0.011,0.127-0.022,0.189-0.037c0.678-0.16,1.283-0.604,1.623-1.271c0.002-0.004,0.002-0.006,0.002-0.008 c0.002-0.002,0.002-0.003,0.004-0.003V8.712c0.338-0.673,0.334-1.432,0.053-2.072c-0.024-0.06-0.053-0.118-0.084-0.174 c-0.229-0.431-0.59-0.798-1.059-1.033c-0.471-0.234-0.979-0.303-1.462-0.229c-0.064,0.01-0.128,0.021-0.19,0.036 c-0.682,0.159-1.291,0.611-1.629,1.284v0.003c-0.001,0-0.001,0.001-0.003,0.002c0,0.002-0.002,0.005-0.002,0.008 c-0.333,0.672-0.326,1.423-0.049,2.062C13.081,8.658,13.109,8.715,13.142,8.772z M13.321,8.681 c0.158-0.089,0.315-0.207,0.467-0.349c0.237,0.213,0.52,0.407,0.839,0.571l-0.356,0.712C13.851,9.401,13.528,9.07,13.321,8.681z M13.93,8.193c0.223-0.232,0.43-0.517,0.603-0.844l0.697,0.352l-0.513,1.022C14.417,8.571,14.152,8.39,13.93,8.193z M14.454,9.699 l0.355-0.71c0.274,0.123,0.548,0.21,0.813,0.263c-0.021,0.207-0.021,0.402,0.002,0.585C15.238,9.895,14.835,9.854,14.454,9.699z M15.65,9.055c-0.244-0.051-0.498-0.132-0.751-0.247l0.51-1.019l0.556,0.28C15.811,8.402,15.704,8.737,15.65,9.055z M15.501,7.611 l0.504-1.008c0.243,0.134,0.458,0.287,0.646,0.449c-0.221,0.233-0.424,0.514-0.594,0.836L15.501,7.611z M15.814,9.799 c-0.02-0.159-0.019-0.333,0-0.515c0.398,0.055,0.767,0.03,1.061-0.073C16.579,9.504,16.211,9.704,15.814,9.799z M15.844,9.091 c0.053-0.298,0.152-0.616,0.301-0.933l1.104,0.553C17.016,9.054,16.479,9.182,15.844,9.091z M17.336,8.531l-1.102-0.553 c0.162-0.306,0.354-0.571,0.558-0.79C17.242,7.637,17.464,8.139,17.336,8.531z M17.512,7.952c-0.092-0.303-0.293-0.613-0.58-0.904 c0.137-0.127,0.279-0.233,0.42-0.314C17.516,7.112,17.575,7.535,17.512,7.952z M16.456,5.702c0.353,0.213,0.627,0.512,0.812,0.856 c-0.162,0.092-0.32,0.212-0.479,0.356c-0.199-0.18-0.434-0.347-0.693-0.492L16.456,5.702z M16.279,5.605l-0.362,0.724 C15.6,6.172,15.273,6.062,14.964,6c0.022-0.211,0.021-0.41-0.001-0.596C15.396,5.338,15.855,5.398,16.279,5.605z M14.936,6.195 c0.289,0.062,0.591,0.164,0.891,0.313L15.32,7.521l-0.699-0.35C14.777,6.842,14.881,6.509,14.936,6.195z M14.772,5.441 c0.02,0.16,0.019,0.338-0.002,0.525c-0.403-0.057-0.774-0.03-1.07,0.075C13.996,5.742,14.371,5.537,14.772,5.441z M14.742,6.162 c-0.054,0.294-0.152,0.606-0.299,0.919L13.34,6.528C13.579,6.193,14.112,6.069,14.742,6.162z M13.249,6.709l1.104,0.552 c-0.163,0.31-0.358,0.579-0.565,0.8C13.334,7.607,13.115,7.102,13.249,6.709z M13.072,7.306c0.094,0.298,0.293,0.606,0.576,0.891 c-0.136,0.127-0.274,0.231-0.412,0.31C13.075,8.134,13.017,7.717,13.072,7.306z"/> <path d="M21.377,16.935c0.111,0.604,0.482,1.159,1.061,1.485h0.002c0,0,0,0,0.002,0.002c0.002,0,0.004,0.002,0.008,0.004 c0.574,0.318,1.234,0.346,1.808,0.129c0.054-0.021,0.104-0.043,0.156-0.068c0.388-0.184,0.726-0.484,0.953-0.886 c0.225-0.402,0.308-0.847,0.264-1.273c-0.006-0.057-0.015-0.112-0.024-0.169c-0.11-0.602-0.478-1.153-1.047-1.48 c-0.002-0.001-0.004-0.002-0.008-0.002c0-0.002-0.002-0.002-0.002-0.002c-0.001,0-0.001-0.002-0.002-0.002 c-0.578-0.324-1.244-0.352-1.82-0.133c-0.052,0.021-0.104,0.042-0.154,0.065c-0.389,0.186-0.727,0.484-0.953,0.888 c-0.227,0.402-0.309,0.846-0.264,1.273C21.359,16.823,21.367,16.879,21.377,16.935z M21.555,16.911 c0.143-0.01,0.301-0.001,0.461,0.024c-0.065,0.353-0.059,0.679,0.021,0.945C21.786,17.606,21.621,17.27,21.555,16.911z M22.186,16.969c0.258,0.059,0.527,0.158,0.795,0.301l-0.53,0.947C22.165,17.992,22.078,17.519,22.186,16.969z M23.646,16.452 l0.269-0.477c0.286,0.153,0.577,0.259,0.854,0.319c-0.056,0.211-0.139,0.43-0.248,0.647L23.646,16.452z M24.438,17.098 c-0.148,0.26-0.317,0.483-0.5,0.671c-0.194-0.206-0.437-0.398-0.715-0.564l0.336-0.599L24.438,17.098z M23.492,16.363 l-0.865-0.484c0.129-0.207,0.273-0.391,0.424-0.547c0.195,0.203,0.434,0.394,0.708,0.557L23.492,16.363z M23.404,16.52 l-0.336,0.599c-0.283-0.151-0.569-0.257-0.844-0.317c0.065-0.252,0.168-0.512,0.312-0.771L23.404,16.52z M22.604,18.305 l0.531-0.946c0.266,0.157,0.493,0.339,0.678,0.53C23.396,18.268,22.941,18.438,22.604,18.305z M23.121,18.484 c0.268-0.068,0.546-0.23,0.809-0.469c0.104,0.125,0.189,0.252,0.254,0.375C23.85,18.518,23.48,18.551,23.121,18.484z M24.339,18.324c-0.071-0.143-0.168-0.285-0.284-0.426c0.195-0.2,0.381-0.438,0.535-0.713l0.61,0.344 C24.995,17.891,24.689,18.159,24.339,18.324z M25.43,16.182c-0.142,0.01-0.295,0-0.453-0.024c0.065-0.347,0.059-0.669-0.02-0.933 C25.2,15.498,25.361,15.829,25.43,16.182z M25.453,16.348c0.033,0.343-0.02,0.697-0.171,1.024l-0.608-0.343 c0.119-0.234,0.207-0.475,0.266-0.703C25.119,16.354,25.292,16.362,25.453,16.348z M24.807,16.125 c-0.261-0.058-0.535-0.16-0.807-0.303l0.533-0.947C24.825,15.095,24.914,15.572,24.807,16.125z M24.379,14.79l-0.533,0.944 c-0.26-0.154-0.486-0.334-0.671-0.523C23.589,14.834,24.039,14.662,24.379,14.79z M23.878,14.609 c-0.271,0.07-0.553,0.232-0.821,0.473c-0.104-0.125-0.19-0.254-0.258-0.381C23.139,14.573,23.514,14.539,23.878,14.609z M22.643,14.768c0.072,0.146,0.172,0.292,0.293,0.434c-0.166,0.17-0.322,0.367-0.463,0.59l-0.617-0.349 C22.059,15.144,22.33,14.914,22.643,14.768z M21.764,15.596l0.62,0.348c-0.151,0.275-0.263,0.554-0.329,0.824 c-0.186-0.029-0.361-0.036-0.525-0.024C21.491,16.358,21.562,15.959,21.764,15.596z"/> <path d="M25.717,10.349c1.633,0.471,3.344-0.475,3.814-2.106c0.472-1.63-0.475-3.343-2.106-3.814 c-1.176-0.338-2.396,0.058-3.157,0.919c-0.009,0.004-0.016,0.006-0.018,0.008l0.003,0.006c-0.289,0.328-0.512,0.725-0.642,1.174 c-0.021,0.067-0.035,0.132-0.049,0.199C23.219,8.303,24.15,9.898,25.717,10.349z M24.796,9.59l0.005-0.002 c-0.002-0.006-0.135-0.265-0.186-0.765c0.242,0.144,0.535,0.285,0.885,0.413c-0.002,0.36,0.036,0.627,0.07,0.797 C25.283,9.925,25.023,9.774,24.796,9.59z M25.505,8.969c-0.368-0.145-0.67-0.303-0.909-0.458c-0.005-0.267,0.016-0.579,0.079-0.94 c0.261,0.143,0.572,0.29,0.948,0.431C25.555,8.368,25.52,8.692,25.505,8.969z M25.674,7.75c-0.379-0.144-0.691-0.295-0.947-0.44 c0.028-0.132,0.062-0.268,0.104-0.409c0.037-0.129,0.076-0.25,0.117-0.364c0.289,0.011,0.636,0.048,1.029,0.124 C25.926,6.81,25.876,6.963,25.83,7.13C25.766,7.347,25.716,7.554,25.674,7.75z M27.186,8.438c0.371,0.069,0.693,0.103,0.969,0.112 c-0.137,0.336-0.286,0.611-0.434,0.835c-0.267,0.01-0.582-0.007-0.945-0.065C26.91,9.074,27.051,8.783,27.186,8.438z M26.514,9.27 c-0.146-0.031-0.291-0.065-0.449-0.11c-0.105-0.03-0.209-0.063-0.306-0.097c0.009-0.275,0.038-0.601,0.104-0.976 c0.145,0.05,0.295,0.099,0.455,0.145c0.217,0.063,0.422,0.113,0.613,0.155C26.793,8.737,26.648,9.031,26.514,9.27z M27.023,8.146 c-0.198-0.042-0.41-0.092-0.637-0.157c-0.168-0.049-0.324-0.102-0.475-0.152c0.041-0.2,0.094-0.413,0.158-0.639 c0.052-0.173,0.104-0.332,0.156-0.485c0.17,0.038,0.346,0.083,0.531,0.136c0.213,0.063,0.405,0.126,0.588,0.192 c-0.037,0.167-0.082,0.342-0.135,0.529C27.152,7.777,27.09,7.966,27.023,8.146z M26.829,6.606 c-0.179-0.052-0.351-0.095-0.515-0.133c0.147-0.384,0.303-0.696,0.447-0.945c0.096,0.023,0.195,0.048,0.297,0.078 c0.166,0.047,0.314,0.099,0.459,0.151c-0.009,0.285-0.043,0.63-0.119,1.031C27.225,6.726,27.033,6.664,26.829,6.606z M26.064,6.418c-0.391-0.077-0.731-0.117-1.025-0.132c0.148-0.375,0.314-0.676,0.475-0.916c0.278,0,0.607,0.026,0.986,0.102 C26.357,5.729,26.208,6.042,26.064,6.418z M25.852,10.125c-0.026-0.103-0.086-0.372-0.094-0.796 c0.076,0.024,0.153,0.05,0.236,0.073C26.125,9.439,26.25,9.47,26.372,9.5c-0.216,0.335-0.399,0.536-0.497,0.629 C25.867,10.128,25.857,10.126,25.852,10.125z M26.994,10.186c-0.27,0.04-0.546,0.042-0.824,0.002 c0.122-0.133,0.288-0.34,0.469-0.635c0.338,0.063,0.637,0.086,0.898,0.088C27.279,9.973,27.062,10.137,26.994,10.186z M27.525,10.05c0.102-0.11,0.217-0.25,0.336-0.419c0.203-0.016,0.379-0.042,0.522-0.072C28.13,9.771,27.838,9.938,27.525,10.05z M28.766,9.174c-0.068,0.032-0.314,0.135-0.729,0.186c0.133-0.224,0.268-0.492,0.389-0.808c0.352-0.006,0.604-0.049,0.762-0.086 C29.08,8.724,28.938,8.964,28.766,9.174z M29.25,6.488c-0.102-0.097-0.229-0.204-0.387-0.318c-0.01-0.196-0.029-0.367-0.057-0.511 C28.998,5.908,29.148,6.189,29.25,6.488z M28.867,6.494c0.32,0.254,0.471,0.464,0.506,0.518c0.04,0.291,0.035,0.594-0.021,0.894 c-0.117-0.118-0.311-0.283-0.598-0.467C28.825,7.083,28.859,6.768,28.867,6.494z M28.691,7.705 c0.322,0.214,0.496,0.393,0.57,0.475c-0.063,0.022-0.31,0.097-0.742,0.114c0.037-0.106,0.071-0.216,0.104-0.329 C28.65,7.875,28.672,7.79,28.691,7.705z M28.424,5.254c0.038,0.084,0.133,0.333,0.174,0.74c-0.229-0.14-0.496-0.28-0.822-0.409 c-0.002-0.363-0.045-0.627-0.082-0.79C27.964,4.911,28.21,5.067,28.424,5.254z M27.77,5.856c0.344,0.146,0.623,0.302,0.848,0.452 c0.003,0.277-0.021,0.607-0.094,0.99c-0.238-0.138-0.531-0.281-0.881-0.419C27.721,6.488,27.756,6.148,27.77,5.856z M28.469,7.562 c-0.025,0.106-0.054,0.217-0.086,0.332c-0.041,0.143-0.087,0.274-0.131,0.401c-0.273-0.004-0.598-0.033-0.979-0.1 c0.062-0.174,0.123-0.355,0.182-0.555c0.051-0.179,0.095-0.347,0.131-0.508C27.941,7.276,28.234,7.424,28.469,7.562z M27.402,4.697c0.021,0.065,0.102,0.328,0.115,0.791c-0.125-0.044-0.252-0.087-0.39-0.125c-0.077-0.022-0.151-0.041-0.228-0.061 C27.127,4.959,27.316,4.773,27.402,4.697z M26.242,4.581c0.287-0.034,0.583-0.024,0.879,0.036 c-0.122,0.123-0.295,0.324-0.484,0.625c-0.353-0.074-0.666-0.111-0.943-0.121C25.982,4.752,26.215,4.599,26.242,4.581z M25.727,4.693c-0.104,0.107-0.225,0.25-0.35,0.426c-0.223,0.008-0.41,0.031-0.566,0.06C25.083,4.962,25.395,4.797,25.727,4.693z M24.422,5.552c0.102-0.043,0.365-0.135,0.782-0.17c-0.147,0.243-0.297,0.539-0.431,0.895c-0.375-0.004-0.651,0.03-0.83,0.066 C24.062,6.049,24.225,5.783,24.422,5.552z M23.85,6.625c0.116-0.03,0.396-0.088,0.83-0.092c-0.031,0.095-0.062,0.192-0.095,0.297 c-0.033,0.118-0.062,0.232-0.089,0.344c-0.346-0.218-0.555-0.405-0.657-0.51C23.842,6.65,23.846,6.637,23.85,6.625z M23.777,6.955 c0.141,0.126,0.355,0.295,0.662,0.483c-0.063,0.334-0.094,0.632-0.101,0.895c-0.354-0.271-0.524-0.499-0.569-0.567 C23.732,7.502,23.734,7.229,23.777,6.955z M24.346,8.651c0.014,0.227,0.041,0.417,0.072,0.571 c-0.234-0.276-0.412-0.594-0.525-0.936C24.008,8.396,24.157,8.521,24.346,8.651z"/> <path d="M7.59,10c-0.745,0.321-1.203,1.035-1.234,1.797c-0.002,0.006-0.005,0.009-0.006,0.012l0.006,0.003 c-0.012,0.289,0.041,0.586,0.163,0.87c0.019,0.042,0.038,0.082,0.058,0.123c0.483,0.948,1.631,1.374,2.623,0.948 c1.035-0.443,1.516-1.646,1.072-2.68C9.828,10.038,8.625,9.557,7.59,10z M8.729,11.167c-0.125-0.234-0.247-0.424-0.363-0.579 c0.237-0.069,0.446-0.107,0.623-0.122c0.119,0.14,0.246,0.32,0.369,0.546C9.178,11.042,8.968,11.091,8.729,11.167z M8.8,11.701 c0.057,0.132,0.103,0.254,0.146,0.374c-0.12,0.063-0.249,0.126-0.392,0.187c-0.108,0.046-0.21,0.086-0.31,0.12 c-0.062-0.12-0.123-0.249-0.186-0.394c-0.046-0.108-0.086-0.213-0.124-0.313c0.103-0.051,0.212-0.104,0.331-0.156 c0.133-0.057,0.26-0.104,0.381-0.146C8.697,11.474,8.748,11.583,8.8,11.701z M8.566,11.221c-0.116,0.041-0.238,0.089-0.367,0.145 c-0.115,0.05-0.22,0.099-0.32,0.149c-0.085-0.259-0.138-0.484-0.167-0.674c0.059-0.028,0.12-0.056,0.185-0.084 C8,10.714,8.1,10.676,8.195,10.645C8.312,10.793,8.438,10.984,8.566,11.221z M7.904,12.054c0.06,0.139,0.121,0.267,0.182,0.385 c-0.255,0.084-0.479,0.139-0.67,0.172c-0.041-0.081-0.081-0.162-0.12-0.254c-0.035-0.081-0.064-0.16-0.093-0.235 c0.152-0.117,0.348-0.242,0.581-0.37C7.819,11.851,7.859,11.95,7.904,12.054z M8.165,12.589c0.119,0.217,0.236,0.399,0.348,0.546 c-0.25,0.081-0.472,0.126-0.66,0.147c-0.113-0.135-0.235-0.303-0.354-0.515C7.691,12.73,7.914,12.675,8.165,12.589z M8.325,12.531 c0.096-0.034,0.191-0.071,0.294-0.115c0.139-0.061,0.264-0.119,0.379-0.179c0.077,0.237,0.125,0.448,0.156,0.629 c-0.086,0.045-0.178,0.09-0.276,0.131c-0.067,0.029-0.134,0.056-0.197,0.081C8.568,12.931,8.448,12.752,8.325,12.531z M8.954,11.634c-0.049-0.113-0.098-0.217-0.147-0.314c0.244-0.077,0.456-0.125,0.634-0.151c0.032,0.065,0.063,0.136,0.095,0.207 c0.039,0.091,0.071,0.178,0.101,0.261c-0.141,0.111-0.319,0.233-0.542,0.359C9.053,11.88,9.008,11.76,8.954,11.634z M9.616,11.148 c0.253-0.025,0.418-0.008,0.491,0.006c-0.023,0.037-0.119,0.177-0.334,0.367c-0.025-0.067-0.054-0.138-0.083-0.211 C9.665,11.254,9.641,11.201,9.616,11.148z M10.038,10.976c-0.111-0.012-0.279-0.015-0.503,0.011 c-0.113-0.213-0.227-0.39-0.339-0.532c0.271-0.003,0.437,0.04,0.478,0.053C9.815,10.639,9.94,10.797,10.038,10.976z M9.391,10.292 c-0.095-0.008-0.203-0.01-0.331-0.001c-0.087-0.098-0.171-0.176-0.247-0.239C9.018,10.097,9.213,10.179,9.391,10.292z M8.448,10.004c0.055,0.028,0.208,0.116,0.4,0.307c-0.175,0.023-0.372,0.064-0.594,0.136c-0.153-0.187-0.283-0.303-0.373-0.372 C8.07,10.022,8.26,10,8.448,10.004z M7.691,10.148c0.039,0.023,0.189,0.125,0.392,0.356C8,10.534,7.918,10.567,7.831,10.603 c-0.05,0.023-0.096,0.044-0.143,0.066C7.661,10.397,7.68,10.222,7.691,10.148z M7.727,11.592c-0.232,0.124-0.423,0.245-0.581,0.36 c-0.081-0.253-0.122-0.477-0.141-0.667c0.142-0.117,0.321-0.241,0.55-0.363C7.588,11.115,7.642,11.338,7.727,11.592z M7.048,10.576c0.134-0.139,0.288-0.258,0.465-0.352c-0.011,0.114-0.014,0.291,0.015,0.523c-0.213,0.11-0.39,0.224-0.535,0.335 C6.986,10.771,7.041,10.594,7.048,10.576z M6.829,10.847c-0.008,0.102-0.009,0.224-0.001,0.367 c-0.109,0.096-0.195,0.188-0.264,0.27C6.613,11.257,6.703,11.042,6.829,10.847z M6.521,11.838c0.035-0.066,0.13-0.222,0.33-0.414 c0.026,0.186,0.074,0.399,0.154,0.638c-0.193,0.155-0.321,0.289-0.397,0.383C6.546,12.245,6.517,12.039,6.521,11.838z M6.678,12.628c0.047-0.064,0.166-0.212,0.387-0.396c0.024,0.063,0.048,0.125,0.077,0.19c0.032,0.075,0.065,0.146,0.1,0.215 c-0.269,0.034-0.455,0.024-0.553,0.013C6.686,12.645,6.682,12.635,6.678,12.628z M6.779,12.827 c0.126,0.006,0.308,0.003,0.542-0.03c0.108,0.197,0.219,0.363,0.326,0.5c-0.297,0.012-0.479-0.035-0.531-0.051 C6.986,13.125,6.872,12.984,6.779,12.827z M7.397,13.462c0.106,0.008,0.234,0.009,0.387-0.004c0.1,0.113,0.195,0.198,0.276,0.263 C7.824,13.677,7.601,13.59,7.397,13.462z M8.408,13.75l0.001-0.004c-0.003,0-0.18-0.077-0.415-0.313 c0.184-0.026,0.395-0.079,0.627-0.156c0.15,0.183,0.282,0.305,0.371,0.377C8.8,13.718,8.603,13.75,8.408,13.75z M9.188,13.574 c-0.004,0.003-0.01,0.005-0.013,0.008c-0.058-0.042-0.202-0.154-0.384-0.369c0.051-0.02,0.101-0.039,0.153-0.062 c0.082-0.035,0.16-0.071,0.233-0.108C9.208,13.306,9.197,13.486,9.188,13.574z M9.15,12.158c0.219-0.122,0.398-0.239,0.543-0.351 c0.07,0.229,0.11,0.435,0.128,0.61C9.69,12.535,9.52,12.658,9.309,12.78C9.276,12.599,9.227,12.39,9.15,12.158z M9.786,13.133 c-0.122,0.134-0.262,0.25-0.423,0.347c0.008-0.12,0.006-0.294-0.025-0.522c0.199-0.108,0.361-0.223,0.498-0.333 C9.843,12.905,9.801,13.08,9.786,13.133z M10.002,12.841c0.006-0.099,0.006-0.219-0.005-0.357c0.1-0.092,0.177-0.179,0.239-0.255 C10.193,12.445,10.112,12.652,10.002,12.841z M9.975,12.271c-0.026-0.171-0.07-0.363-0.141-0.577 c0.179-0.15,0.289-0.278,0.354-0.363c0.055,0.179,0.082,0.36,0.082,0.54C10.247,11.918,10.164,12.072,9.975,12.271z"/> <path d="M17.75,3.174l0.066-0.059l0.031,0.015l0.088-0.107L17.891,3.01l-0.076,0.098l-0.004-0.041l-0.031-0.011L17.71,3.147 l0.004-0.151l0.071-0.095h0.091l0.062-0.069L17.93,2.755l0.039-0.02l0.012,0.104c0,0-0.062,0.085-0.06,0.081 c0.004-0.004,0.062,0.036,0.062,0.036l0.074-0.104L18.039,2.82l0.05-0.073l-0.034-0.039l-0.037,0.035l-0.023-0.04l0.013-0.039 l0.091-0.104l0.006,0.102l0.049,0.02l0.059-0.055l-0.078-0.055l0.018-0.082l0.068-0.117l0.186-0.104l0.058,0.044l0.05-0.041 l0.026,0.06l-0.054,0.07l0.035,0.06l-0.158,0.134l0.031-0.177l-0.08,0.017l-0.068,0.118l0.002,0.017l0.001,0.005l0.007,0.056 l-0.035,0.053L18.247,2.7l0.021-0.012l0.008,0.007L18.25,2.74l0.021,0.021l-0.029,0.041l-0.053-0.028l-0.033,0.09l-0.029,0.211 l0.072,0.028l0.057-0.022l0.074-0.073l0.091,0.068l0.022-0.043L18.4,2.944l0.039-0.108L18.33,2.753l0.002-0.076l0.118-0.098 l0.063,0.063l0.025-0.032l0.023-0.117l0.099,0.067l0.084-0.035L18.8,2.57l-0.024,0.076l0.021,0.009l0.088-0.047l0.038,0.03 L18.909,2.66h-0.002l-0.099,0.071l-0.031-0.019l0.002-0.04l-0.024-0.02l-0.03,0.022l0.02,0.027l-0.03,0.055l-0.005,0.005 l0.002,0.002l-0.012,0.019l-0.038-0.007l-0.021,0.012l-0.027,0.037v0.025l0.031,0.021l0.031-0.021l0.028-0.028L18.7,2.833 l0.009,0.051l-0.023,0.001l-0.027,0.021l0.01,0.125l0.016-0.004l-0.024,0.151l0.024,0.182L18.725,3.4l-0.014,0.152l0.012,0.088 l0.103,0.068l-0.087,0.047l-0.057-0.044l-0.148,0.195l-0.027,0.14l0.045,0.104L18.6,4.215l0.082,0.016l0.069-0.071l0.015-0.189 l0.051,0.021l0.039,0.092l0.09-0.087l0.152,0.102l0.121-0.115l-0.027-0.156l0.097-0.087l0.075,0.001l0.068-0.103l-0.025-0.024 l0.066-0.033l0.137,0.01l0.08-0.107l0.096,0.01l0.084,0.058l0.132-0.084l0.11-0.146l0.102,0.008l0.069-0.049l0.047,0.054 l0.032,0.139l0.177,0.166l0.001,0.102l-0.075,0.094l0.028,0.071l0.119,0.055l0.049,0.199l0.033,0.078l-0.029,0.133l-0.04,0.073 l0.024,0.021l0.047-0.036l0.025,0.028l0.006,0.068h0.049l0.039-0.048l0.035,0.03l0.024,0.04L20.9,4.575l0.113-0.028l0.024,0.034 l-0.077,0.097l-0.159,0.035l-0.187-0.021L20.5,4.585l-0.119,0.002l-0.107-0.12l-0.035,0.027l-0.274-0.208 c0,0-0.146,0.041-0.149,0.047c-0.004,0.006-0.051,0.043-0.051,0.043l-0.058-0.03l-0.248,0.011l-0.045-0.054l-0.087-0.072 l0.008-0.131l-0.109-0.065l-0.106,0.12l-0.185,0.017l-0.074,0.055l-0.041,0.04l-0.034-0.036L18.73,4.283L18.751,4.3l-0.144,0.118 l-0.131-0.006l-0.023-0.056l-0.199-0.007l-0.105-0.057l-0.029,0.037l0.104,0.058l0.144,0.009l0.03,0.034l-0.049,0.05l-0.158-0.019 l-0.127-0.096L17.977,4.41l-0.09-0.069c0.129,0.231,0.305,0.44,0.525,0.608c0.884,0.672,2.17,0.475,2.865-0.439 c0.394-0.519,0.517-1.158,0.388-1.738l-0.042,0.056l-0.107-0.082l-0.129,0.002l-0.129-0.099l-0.083,0.013l-0.058-0.035 l-0.066-0.148l-0.285-0.036l-0.125-0.114L20.55,2.424l-0.067,0.011l-0.053,0.07l0.006,0.062L20.339,2.69l0.009,0.013l-0.053,0.068 L20,2.798l-0.135-0.105l0.01-0.034L19.831,2.61l-0.028,0.037l-0.064-0.025l0.011-0.282l-0.09-0.068l0.021-0.126l0.03-0.033 l0.058-0.073l0.014-0.08l0.127-0.198L20,1.83l0.148-0.121l0.039-0.012l0.021-0.027l-0.049-0.039l0.056-0.09l0.121-0.037l0.1-0.132 V1.355c-0.054-0.019-0.106-0.037-0.162-0.052l-0.064,0.089L20.13,1.399l-0.08-0.047l-0.011,0.062l0.072,0.092l-0.114,0.014 l-0.063-0.043L19.835,1.5l-0.041,0.006l-0.056,0.071l0.078,0.025l0.113-0.052l0.027-0.003l-0.005,0.025l0.049,0.036l-0.015,0.056 l-0.034,0.03h-0.05l0.049-0.057l-0.01-0.033L19.76,1.67l-0.044-0.019l0.007,0.089L19.67,1.785l0.041,0.158l0.025,0.047 l-0.033,0.055l-0.057,0.08L19.59,2.154l-0.099-0.053l-0.029-0.049l0.044-0.091l0.081-0.072L19.55,1.843l-0.036,0.03l-0.061-0.065 l0.053-0.098l-0.037-0.121l0.038-0.07l0.05-0.049l0.017-0.021l-0.085-0.048L19.464,1.49l-0.077-0.02l-0.035,0.035l-0.045-0.023 l-0.01-0.057l0.029-0.1l-0.02-0.045c-0.471,0.102-0.914,0.372-1.233,0.79c-0.276,0.366-0.421,0.789-0.435,1.209L17.7,3.196 L17.75,3.174z M18.74,2.996l-0.021-0.021l-0.006-0.028l0.03-0.009l0.021,0.021L18.74,2.996z M18.814,2.879l-0.021,0.032 c-0.008-0.006-0.015-0.01-0.015-0.01l-0.008,0.013L18.75,2.896l0.037-0.047L18.77,2.82l0.015-0.02l0.021-0.018l0.012,0.022 L18.8,2.829l0.019,0.022L18.814,2.879z M19.314,1.894l-0.029,0.038l-0.032-0.025l-0.026-0.071l0.024-0.053l0.038-0.021L19.32,1.79 L19.314,1.894z M19.242,1.646l0.072,0.034l0.067,0.006l0.036-0.004l0.039-0.024l0.014,0.061l-0.043,0.07l-0.037,0.048l-0.05-0.047 l0.021-0.048l-0.028-0.016l-0.05,0.019L19.247,1.76l-0.024-0.02l-0.014-0.033L19.242,1.646z"/> <path d="M6.577,7.949c1.504,0,2.809-0.86,3.452-2.114c0.138-0.269,0.244-0.556,0.316-0.854c0.019-0.075,0.035-0.152,0.049-0.23 c0.039-0.22,0.06-0.445,0.06-0.678c0-0.012,0-0.026-0.001-0.039c-0.001-0.114-0.007-0.228-0.017-0.337 C10.4,3.327,10.312,2.97,10.18,2.64h0.003l-0.012-0.065L10.15,2.566C9.974,2.148,9.725,1.771,9.423,1.442 C9.402,1.421,9.383,1.4,9.362,1.379c-0.058-0.06-0.116-0.118-0.179-0.173C8.496,0.579,7.58,0.195,6.577,0.195 c-1.011,0-1.933,0.39-2.624,1.027c-0.161,0.15-0.31,0.311-0.443,0.485C3.004,2.362,2.7,3.182,2.7,4.072 C2.7,6.21,4.439,7.949,6.577,7.949z M3.305,2.679v0.203l0.148,0.07v0.283l0.14,0.241l0.115,0.019l0.017-0.083l-0.138-0.21 L3.561,2.998h0.08l0.034,0.21l0.197,0.287L3.821,3.588l0.124,0.19l0.311,0.078V3.804l0.123,0.019L4.369,3.91l0.096,0.019 l0.152,0.042L4.83,4.213l0.271,0.021l0.025,0.223l-0.185,0.13L4.934,4.784L4.906,4.906l0.269,0.336l0.021,0.115 c0,0,0.098,0.026,0.109,0.026c0.011,0,0.218,0.157,0.218,0.157v0.609L5.598,6.17L5.547,6.451l0.124,0.166L5.649,6.896l0.163,0.288 l0.212,0.184l0.212,0.005l0.02-0.066L6.101,7.174L6.11,7.109l0.028-0.081l0.005-0.083L6.038,6.943L5.986,6.877l0.086-0.084 l0.014-0.064L5.987,6.702l0.005-0.06l0.141-0.021l0.21-0.103l0.071-0.129l0.223-0.284L6.586,5.883l0.068-0.118l0.203,0.006 l0.137-0.108l0.044-0.428l0.153-0.194l0.027-0.123l-0.14-0.046l-0.09-0.15L6.674,4.719L6.426,4.623L6.414,4.447L6.332,4.301 L6.106,4.299L5.977,4.095L5.861,4.038L5.855,4.102l-0.21,0.012L5.57,4.006L5.35,3.962L5.169,4.17L4.885,4.122l-0.02-0.32 L4.658,3.766L4.74,3.609L4.717,3.519L4.445,3.702L4.273,3.681l-0.06-0.134L4.25,3.41l0.094-0.175l0.218-0.109H4.98v0.129 l0.15,0.069L5.119,3.104l0.109-0.107l0.219-0.145L5.462,2.75l0.22-0.228l0.23-0.129l-0.02-0.018L6.05,2.229l0.059,0.015 l0.026,0.033l0.06-0.065L6.21,2.203L6.143,2.194L6.077,2.173V2.108L6.112,2.08H6.19l0.036,0.015l0.031,0.061l0.036-0.005V2.146 l0.013,0.003l0.108-0.016L6.43,2.08l0.061,0.015v0.057L6.434,2.193l0.008,0.062L6.64,2.317L6.641,2.32l0.045-0.005L6.689,2.23 L6.531,2.158L6.523,2.117l0.131-0.044l0.005-0.125L6.523,1.866l-0.009-0.21l-0.187,0.09H6.26l0.018-0.158l-0.253-0.06L5.919,1.606 v0.242L5.73,1.908L5.655,2.066L5.573,2.08V1.877L5.396,1.854L5.309,1.796l-0.037-0.13l0.317-0.187l0.156-0.047L5.76,1.538 l0.087-0.007l0.007-0.052l0.091-0.013l0.001-0.019l-0.04-0.016l-0.01-0.053l0.112-0.01l0.067-0.07l0.003-0.006l0,0l0.021-0.02 l0.233-0.029L6.436,1.33L6.167,1.473l0.345,0.082L6.557,1.44h0.15l0.053-0.1L6.654,1.312V1.186L6.318,1.039L6.089,1.065 L5.958,1.133l0.01,0.165L5.832,1.277L5.811,1.186l0.131-0.117L5.704,1.056l-0.067,0.02l-0.03,0.081l0.089,0.015L5.679,1.26 l-0.151,0.01L5.504,1.327l-0.22,0.007c0,0-0.005-0.124-0.014-0.124s0.171-0.003,0.171-0.003L5.572,1.08L5.5,1.044L5.406,1.135 L5.249,1.128L5.154,0.996H4.953l-0.21,0.157h0.192L4.953,1.21L4.902,1.257l0.214,0.007L5.149,1.34L4.908,1.33L4.896,1.272 l-0.15-0.033L4.667,1.194l-0.18,0.001c0.587-0.427,1.309-0.681,2.09-0.681c0.9,0,1.722,0.337,2.35,0.889L8.884,1.479L8.72,1.543 L8.65,1.618l0.017,0.089l0.085,0.01l0.051,0.128l0.146-0.058l0.023,0.171H8.93L8.809,1.939L8.676,1.962l-0.129,0.18l-0.185,0.03 L8.336,2.33l0.078,0.018L8.393,2.449L8.208,2.413L8.041,2.449L8.005,2.543l0.029,0.195l0.099,0.046l0.165-0.001l0.111-0.01 l0.036-0.089l0.172-0.227l0.116,0.024l0.112-0.104l0.021,0.081l0.277,0.187L9.111,2.693L8.985,2.687l0.048,0.067l0.078,0.017 L9.2,2.733L9.198,2.625l0.04-0.021L9.207,2.57L9.021,2.467L8.973,2.33h0.154l0.048,0.048L9.31,2.493l0.005,0.14l0.137,0.145 l0.051-0.2l0.095-0.053l0.019,0.164l0.092,0.103l0.187-0.003c0.036,0.091,0.067,0.187,0.097,0.28l-0.021,0.02H9.688l-0.174-0.13 L9.332,2.977v0.112H9.274L9.212,3.044l-0.315-0.08V2.759L8.498,2.792L8.374,2.858H8.215L8.138,2.849L7.945,2.958v0.201 L7.553,3.441l0.032,0.122h0.079l-0.02,0.115l-0.058,0.02L7.585,4l0.339,0.388h0.149l0.008-0.023h0.267l0.077-0.071h0.15 l0.083,0.084l0.225,0.023L8.854,4.697l0.25,0.442l-0.133,0.25L8.98,5.508l0.104,0.103v0.283l0.138,0.185v0.235h0.117 c-0.655,0.803-1.65,1.317-2.762,1.317c-1.961,0-3.558-1.597-3.558-3.559C3.02,3.58,3.121,3.108,3.305,2.679z"/> </g> </g> </g>
</svg>