<?xml version="1.0" encoding="iso-8859-1"?>
<!-- Uploaded to: SVG Repo, www.svgrepo.com, Generator: SVG Repo Mixer Tools -->
<svg fill="#000000" version="1.1" id="Layer_1" xmlns="http://www.w3.org/2000/svg" xmlns:xlink="http://www.w3.org/1999/xlink" 
	 viewBox="0 0 496 496" xml:space="preserve">
<g>
	<g>
		<g>
			<path d="M299.516,0l52,52l-52,52h-36.688v25.24c-10.68-1.456-21.32-1.456-32,0V72h-64v86.816
				c-14.4,12.928-25.264,28.88-32,46.528V168h-64v88h56.408c0.4,6.072,1.192,12.024,2.464,17.816L1.172,402.344l11.312,11.312
				L134.988,291.16c12.184,31.472,37.216,56.504,68.688,68.688L81.172,482.344l11.312,11.312L194.14,392h12.688v64
				c0,22.056,17.944,40,40,40c22.056,0,40-17.944,40-40v-64h16v-16h-16v-15c44.12-15.672,76.368-56.376,79.592-105h56.408v-92.688
				l20-20l52,52V0H299.516z M118.828,240h-32v-56h32V240z M278.828,120h32v120h-32V120z M230.828,145.424
				c10.696-1.68,21.304-1.68,32,0v16.112c-10.568-1.936-21.432-1.936-32,0V145.424z M182.828,88h32v152h-32V88z M230.828,256
				v-77.992c10.536-2.392,21.464-2.392,32,0V256h55.528c-4,35.944-34.536,64-71.528,64s-67.536-28.056-71.528-64H230.828z
				 M270.828,456c0,13.232-10.768,24-24,24s-24-10.768-24-24v-64h48V456z M270.828,376h-48v-10.416
				c7.76,1.576,15.784,2.416,24,2.416s16.24-0.84,24-2.416V376z M246.828,352c-57.344,0-104-46.656-104-104
				c0-24.416,8.656-47.664,24-66.176v29.912c-5.248,11.528-8,23.704-8,36.264c0,48.52,39.48,88,88,88s88-39.48,88-88
				c0-12.552-2.752-24.728-8-36.264v-29.912c15.344,18.512,24,41.76,24,66.176C350.828,305.344,304.172,352,246.828,352z
				 M358.828,124.688l-21.656,21.656l11.312,11.312l10.344-10.344v58.032c-6.736-17.656-17.6-33.6-32-46.528V104h-4.688
				l36.688-36.688V124.688z M406.828,240h-32V48h32V240z M478.828,156.688l-36-36l-20,20V32h-64v4.688L338.14,16h140.688V156.688z"
				/>
			<rect x="5.973" y="396.011" transform="matrix(0.7071 -0.7071 0.7071 0.7071 -259.0804 182.5456)" width="169.678" height="16"/>
			
				<rect x="6.863" y="468.687" transform="matrix(-0.7071 -0.7071 0.7071 -0.7071 -314.0371 829.9184)" width="16" height="22.624"/>
		</g>
	</g>
</g>
</svg>