<?xml version="1.0" encoding="iso-8859-1"?>
<!-- Uploaded to: SVG Repo, www.svgrepo.com, Generator: SVG Repo Mixer Tools -->
<!DOCTYPE svg PUBLIC "-//W3C//DTD SVG 1.1//EN" "http://www.w3.org/Graphics/SVG/1.1/DTD/svg11.dtd">
<svg fill="#000000" version="1.1" id="Capa_1" xmlns="http://www.w3.org/2000/svg" xmlns:xlink="http://www.w3.org/1999/xlink" 
	 width="800px" height="800px" viewBox="0 0 31.874 31.874"
	 xml:space="preserve">
<g>
	<g>
		<path d="M28.635,25.181c-0.332-0.592-1.107-1.975-1.91-3.156c-0.271-0.396-0.541-0.766-0.787-1.1
			c-0.394-0.534-0.881-1.201-0.886-1.397c0.029-0.868,0.009-2.921,0.003-3.555h0.512v-0.899h-6.479v0.899h0.679
			c-0.007,0.634-0.027,2.686,0.002,3.553c-0.004,0.198-0.492,0.865-0.886,1.399c-0.243,0.334-0.516,0.703-0.786,1.1
			c-0.803,1.182-1.578,2.564-1.91,3.156l-0.088,0.156c-0.343,0.604-0.346,1.427-0.012,2.002c0.254,0.436,0.663,0.677,1.148,0.677
			h10.351h0.001c0.484,0,0.895-0.241,1.146-0.677c0.336-0.575,0.332-1.399-0.01-2.002L28.635,25.181z M28.091,26.964
			c-0.118,0.203-0.289,0.308-0.506,0.308H17.234c-0.215,0-0.385-0.104-0.504-0.308c-0.203-0.347-0.195-0.89,0.016-1.263l0.089-0.159
			c0.327-0.582,1.093-1.945,1.879-3.101c0.263-0.388,0.529-0.75,0.771-1.079c0.687-0.936,1.043-1.441,1.031-1.863
			c-0.027-0.771-0.014-2.567-0.004-3.343h3.803c0.008,0.775,0.022,2.571-0.004,3.343c-0.015,0.422,0.342,0.928,1.028,1.863
			c0.241,0.329,0.507,0.691,0.771,1.079c0.785,1.153,1.552,2.519,1.879,3.101l0.089,0.159
			C28.287,26.075,28.293,26.617,28.091,26.964z"/>
		<path d="M27.596,25.419c-0.193-0.348-0.65-1.162-1.123-1.854c-0.121-0.179-0.24-0.343-0.355-0.5h-7.413
			c-0.115,0.157-0.233,0.321-0.354,0.5c-0.473,0.692-0.93,1.507-1.125,1.854l-0.052,0.092c-0.202,0.355-0.202,0.838-0.006,1.177
			c0.149,0.257,0.39,0.399,0.675,0.399h0.649h2.405h3.029h2.42h0.635c0.283,0,0.524-0.143,0.674-0.399
			c0.195-0.339,0.195-0.821-0.006-1.177L27.596,25.419z"/>
		<path d="M26.091,16.338v1.493h0.774v3.453c0.127,0.176,0.255,0.357,0.383,0.545c0.115,0.168,0.227,0.34,0.339,0.512v-4.51h2.792
			v7.857c0.001,0.416-0.117,0.764-0.336,0.98c-0.104,0.104-0.232,0.184-0.389,0.235c-0.041,0.245-0.105,0.481-0.227,0.687
			c-0.021,0.037-0.048,0.062-0.07,0.096c0.492-0.043,0.897-0.208,1.197-0.508c0.353-0.354,0.547-0.885,0.545-1.5v-7.85h0.774v-1.491
			H26.091z"/>
		<path d="M29.656,26.184c0.121-0.191,0.123-0.414,0.123-0.459c0-0.085,0-4.035,0-4.035h-1.592c0,0,0,0.752,0,1.608
			c0.492,0.812,0.908,1.553,1.135,1.955l0.096,0.168C29.548,25.652,29.616,25.915,29.656,26.184z"/>
		<path d="M18.208,20.326c0.394-0.534,0.881-1.2,0.886-1.399c-0.013-0.392-0.016-1.023-0.016-1.657H1.797L0,25.413h15.206
			c0.038-0.238,0.101-0.471,0.217-0.675l0.087-0.155c0.333-0.593,1.109-1.977,1.912-3.158
			C17.691,21.029,17.962,20.661,18.208,20.326z M10.208,24.292l0.366-1.658h4.29l0.366,1.658H10.208z"/>
		<polygon points="18.307,15.464 3.4,15.464 3.4,5.403 10.38,5.403 15.058,5.403 22.038,5.403 22.038,14.475 23.583,14.475 
			23.583,11.755 23.583,11.755 23.583,3.858 15.386,3.858 10.05,3.858 1.854,3.858 1.854,11.755 1.854,16.753 18.307,16.753 		"/>
		<path d="M8.548,12.602V8.673H7.622c-0.008,0.163-0.046,0.298-0.116,0.41c-0.07,0.112-0.159,0.2-0.268,0.266
			c-0.109,0.065-0.231,0.112-0.367,0.14C6.736,9.519,6.597,9.53,6.454,9.526v0.812h0.92v2.263H8.548z"/>
		<polygon points="11.695,12.602 11.695,11.608 12.688,11.608 12.688,10.746 11.695,10.746 11.695,9.752 10.833,9.752 
			10.833,10.746 9.839,10.746 9.839,11.608 10.833,11.608 10.833,12.602 		"/>
		<path d="M15.703,12.602V8.673h-0.926c-0.007,0.163-0.046,0.298-0.116,0.409c-0.07,0.111-0.159,0.2-0.268,0.266
			c-0.11,0.066-0.232,0.113-0.367,0.141c-0.136,0.029-0.275,0.041-0.417,0.038v0.811h0.919v2.263H15.703z"/>
		<rect x="16.994" y="10.062" width="2.85" height="0.864"/>
		<rect x="16.994" y="11.422" width="2.85" height="0.864"/>
	</g>
</g>
</svg>